<?xml version="1.0" encoding="UTF-8" standalone="no"?>
<!-- Created with Inkscape (http://www.inkscape.org/) -->
<svg xmlns:dc="http://purl.org/dc/elements/1.1/" xmlns:cc="http://creativecommons.org/ns#" xmlns:rdf="http://www.w3.org/1999/02/22-rdf-syntax-ns#" xmlns:svg="http://www.w3.org/2000/svg" xmlns="http://www.w3.org/2000/svg" xmlns:sodipodi="http://sodipodi.sourceforge.net/DTD/sodipodi-0.dtd" xmlns:inkscape="http://www.inkscape.org/namespaces/inkscape" width="200mm" height="60mm" viewBox="0 0 744.09449 1052.3622" id="svg2" version="1.1">
  <defs id="defs4">
    <clipPath id="clipPath3352" clipPathUnits="userSpaceOnUse">
      <path id="path3354" d="m 0,566.929 708.661,0 L 708.661,0 0,0 0,566.929 Z"/>
    </clipPath>
    <clipPath id="clipPath3374" clipPathUnits="userSpaceOnUse">
      <path id="path3376" d="m 0,566.929 708.661,0 L 708.661,0 0,0 0,566.929 Z"/>
    </clipPath>
    <clipPath id="clipPath3386" clipPathUnits="userSpaceOnUse">
      <path id="path3388" d="m 0,0 708.661,0 0,566.929 L 0,566.929 0,0 Z"/>
    </clipPath>
    <clipPath id="clipPath3456" clipPathUnits="userSpaceOnUse">
      <path id="path3458" d="m 0,0 708.661,0 0,566.929 L 0,566.929 0,0 Z"/>
    </clipPath>
    <clipPath id="clipPath3476" clipPathUnits="userSpaceOnUse">
      <path id="path3478" d="m 0,0 708.661,0 0,566.929 L 0,566.929 0,0 Z"/>
    </clipPath>
    <clipPath id="clipPath3494" clipPathUnits="userSpaceOnUse">
      <path id="path3496" d="m 0,0 708.661,0 0,566.929 L 0,566.929 0,0 Z"/>
    </clipPath>
    <clipPath id="clipPath3512" clipPathUnits="userSpaceOnUse">
      <path id="path3514" d="m 0,0 708.661,0 0,566.929 L 0,566.929 0,0 Z"/>
    </clipPath>
  </defs>
  
  <metadata id="metadata7">
    
  </metadata>
  <g id="layer1">
    <g transform="matrix(10.55835,0,0,-10.55835,-3438.8851,3705.7764)" id="g3344">
      <g id="g3382">
        <g clip-path="url(#clipPath3386)" id="g3384">
          <g transform="translate(207.4525,293.1051)" id="g3390">
            <path id="path3392" style="fill:#f3652f;fill-opacity:1;fill-rule:nonzero;stroke:none" d="m 0,0 c -2.726,2.643 -5.178,5.559 -7.931,8.172 -0.751,0.713 -1.58,1.363 -2.374,2.045 l 0,-13.168 c 0,-1.831 1.485,-3.316 3.316,-3.316 l 14.75,0 C 7.338,-6.005 6.921,-5.733 6.515,-5.452 4.182,-3.839 2.035,-1.973 0,0"/>
          </g>
          <g transform="translate(205.8607,304.2022)" id="g3394">
            <path id="path3396" style="fill:#f3652f;fill-opacity:1;fill-rule:nonzero;stroke:none" d="m 0,0 c 12.771,-2.174 26.903,3.552 33.765,14.71 1.863,3.028 3.394,6.521 4.456,9.959 l 0,1.586 c 0,1.831 -1.484,3.315 -3.315,3.315 l -40.303,0 c -1.831,0 -3.316,-1.484 -3.316,-3.315 l 0,-23.294 C -8.667,2.947 -8.616,2.932 -8.572,2.919 -5.65,2.036 -3.047,0.519 0,0 m 7.648,15.851 c 0.901,4.054 4.945,6.628 9,5.727 4.056,-0.902 6.628,-4.946 5.726,-9 C 21.473,8.522 17.43,5.95 13.375,6.851 c -4.056,0.902 -6.628,4.944 -5.727,9"/>
          </g>
          <g transform="translate(229.2921,288.2167)" id="g3398">
            <path id="path3400" style="fill:#f3652f;fill-opacity:1;fill-rule:nonzero;stroke:none" d="m 0,0 c -0.479,-0.497 -1.132,-0.96 -1.868,-1.378 l 13.342,0 c 1.831,0 3.316,1.484 3.316,3.315 l 0,28.071 C 13.231,24.737 11.304,19.574 8.992,14.586 6.716,9.678 3.785,3.923 0,0"/>
          </g>
          <g transform="translate(219.2354,311.0536)" id="g3402">
            <path id="path3404" style="fill:#ffffff;fill-opacity:1;fill-rule:nonzero;stroke:none" d="m 0,0 c 4.056,-0.901 8.098,1.671 9,5.726 0.901,4.054 -1.671,8.099 -5.727,9 C -0.782,15.628 -4.825,13.054 -5.726,9 -6.628,4.944 -4.056,0.902 0,0"/>
          </g>
          <g transform="translate(239.6262,318.912)" id="g3406">
            <path id="path3408" style="fill:#ffffff;fill-opacity:1;fill-rule:nonzero;stroke:none" d="m 0,0 c -6.862,-11.158 -20.995,-16.884 -33.765,-14.71 -3.047,0.519 -5.651,2.036 -8.573,2.919 -0.043,0.014 -0.094,0.029 -0.14,0.043 l 0,-3.841 c 0.793,-0.683 1.622,-1.333 2.373,-2.046 2.753,-2.613 5.205,-5.529 7.931,-8.172 2.035,-1.973 4.182,-3.839 6.516,-5.452 0.405,-0.281 0.822,-0.552 1.245,-0.815 l 12.211,0 c 0.736,0.419 1.389,0.882 1.868,1.379 3.785,3.923 6.716,9.678 8.992,14.586 2.312,4.988 4.239,10.151 5.798,15.422 l 0,10.647 C 3.393,6.521 1.862,3.028 0,0"/>
          </g>
          <g transform="translate(286.1077,293.3983)" id="g3410">
            <path id="path3412" style="fill:#2156a3;fill-opacity:1;fill-rule:nonzero;stroke:none" d="m 0,0 c -2.82,-2.395 -5.533,-4.089 -8.14,-5.073 -2.607,-0.987 -5.406,-1.48 -8.393,-1.48 -4.933,0 -8.724,1.203 -11.374,3.614 -2.65,2.411 -3.974,5.49 -3.974,9.24 0,2.199 0.5,4.206 1.5,6.025 1.001,1.818 2.312,3.277 3.933,4.376 1.621,1.1 3.445,1.931 5.475,2.495 1.494,0.394 3.749,0.775 6.766,1.141 6.145,0.733 10.669,1.606 13.572,2.622 0.028,1.043 0.042,1.705 0.042,1.988 0,3.099 -0.718,5.285 -2.155,6.552 -1.945,1.72 -4.835,2.58 -8.669,2.58 -3.58,0 -6.222,-0.628 -7.928,-1.882 -1.706,-1.255 -2.967,-3.474 -3.785,-6.66 l -7.441,1.016 c 0.677,3.184 1.79,5.757 3.341,7.716 1.549,1.958 3.791,3.467 6.723,4.525 2.931,1.056 6.328,1.586 10.19,1.586 3.832,0 6.948,-0.452 9.344,-1.354 2.396,-0.903 4.158,-2.037 5.285,-3.403 1.128,-1.368 1.917,-3.094 2.369,-5.18 0.253,-1.297 0.38,-3.636 0.38,-7.018 l 0,-10.149 c 0,-7.076 0.161,-11.55 0.487,-13.424 0.323,-1.876 0.964,-3.672 1.923,-5.392 l -7.949,0 C 0.732,-3.961 0.225,-2.115 0,0 m -0.635,16.998 c -2.763,-1.128 -6.906,-2.086 -12.43,-2.874 -3.13,-0.453 -5.343,-0.961 -6.639,-1.524 -1.297,-0.564 -2.298,-1.388 -3.002,-2.474 -0.705,-1.085 -1.057,-2.29 -1.057,-3.614 0,-2.029 0.767,-3.72 2.305,-5.075 1.535,-1.352 3.784,-2.03 6.743,-2.03 2.932,0 5.539,0.642 7.823,1.925 2.283,1.281 3.96,3.037 5.032,5.265 0.816,1.718 1.225,4.256 1.225,7.609 l 0,2.792 z"/>
          </g>
          <g transform="translate(333.4238,304.3067)" id="g3414">
            <path id="path3416" style="fill:#2156a3;fill-opacity:1;fill-rule:nonzero;stroke:none" d="m 0,0 7.484,-0.971 c -0.819,-5.161 -2.911,-9.198 -6.28,-12.114 -3.369,-2.919 -7.505,-4.376 -12.409,-4.376 -6.146,0 -11.086,2.007 -14.821,6.024 -3.735,4.018 -5.602,9.775 -5.602,17.272 0,4.849 0.804,9.091 2.41,12.727 1.607,3.636 4.052,6.363 7.336,8.182 3.283,1.818 6.857,2.729 10.719,2.729 4.877,0 8.865,-1.235 11.966,-3.701 3.101,-2.466 5.088,-5.969 5.962,-10.508 l -7.4,-1.14 c -0.704,3.014 -1.952,5.285 -3.742,6.806 -1.79,1.522 -3.952,2.284 -6.49,2.284 -3.834,0 -6.948,-1.374 -9.345,-4.122 -2.396,-2.749 -3.594,-7.098 -3.594,-13.045 0,-6.034 1.156,-10.416 3.467,-13.15 2.312,-2.734 5.329,-4.102 9.049,-4.102 2.987,0 5.483,0.916 7.485,2.749 2,1.832 3.269,4.65 3.805,8.456"/>
          </g>
          <g transform="translate(378.7526,304.3067)" id="g3418">
            <path id="path3420" style="fill:#2156a3;fill-opacity:1;fill-rule:nonzero;stroke:none" d="m 0,0 7.484,-0.971 c -0.819,-5.161 -2.911,-9.198 -6.28,-12.114 -3.369,-2.919 -7.505,-4.376 -12.409,-4.376 -6.146,0 -11.086,2.007 -14.821,6.024 -3.735,4.018 -5.602,9.775 -5.602,17.272 0,4.849 0.804,9.091 2.41,12.727 1.607,3.636 4.052,6.363 7.336,8.182 3.283,1.818 6.857,2.729 10.719,2.729 4.877,0 8.865,-1.235 11.966,-3.701 3.101,-2.466 5.088,-5.969 5.961,-10.508 l -7.399,-1.14 c -0.704,3.014 -1.952,5.285 -3.742,6.806 -1.79,1.522 -3.953,2.284 -6.49,2.284 -3.834,0 -6.948,-1.374 -9.345,-4.122 -2.396,-2.749 -3.594,-7.098 -3.594,-13.045 0,-6.034 1.156,-10.416 3.467,-13.15 2.312,-2.734 5.329,-4.102 9.049,-4.102 2.987,0 5.483,0.916 7.484,2.749 2.001,1.832 3.27,4.65 3.806,8.456"/>
          </g>
          <g transform="translate(425.7292,302.3193)" id="g3422">
            <path id="path3424" style="fill:#2156a3;fill-opacity:1;fill-rule:nonzero;stroke:none" d="M 0,0 7.865,-0.971 C 6.624,-5.568 4.327,-9.133 0.972,-11.668 c -3.354,-2.538 -7.638,-3.806 -12.853,-3.806 -6.568,0 -11.777,2.021 -15.624,6.067 -3.847,4.044 -5.771,9.717 -5.771,17.018 0,7.556 1.945,13.418 5.834,17.591 3.89,4.17 8.936,6.258 15.137,6.258 6.005,0 10.91,-2.045 14.716,-6.131 C 6.215,21.24 8.118,15.49 8.118,8.077 8.118,7.625 8.103,6.949 8.075,6.047 l -33.487,0 c 0.282,-4.933 1.676,-8.71 4.186,-11.332 2.509,-2.62 5.637,-3.932 9.387,-3.932 2.791,0 5.173,0.733 7.146,2.199 C -2.721,-5.552 -1.156,-3.213 0,0 m -24.989,12.306 25.074,0 c -0.339,3.776 -1.297,6.608 -2.876,8.497 -2.424,2.933 -5.568,4.399 -9.429,4.399 -3.496,0 -6.434,-1.17 -8.815,-3.51 -2.383,-2.341 -3.7,-5.469 -3.954,-9.386"/>
          </g>
          <g transform="translate(440.1057,301.2633)" id="g3426">
            <path id="path3428" style="fill:#2156a3;fill-opacity:1;fill-rule:nonzero;stroke:none" d="m 0,0 7.526,1.183 c 0.424,-3.017 1.6,-5.327 3.531,-6.934 1.93,-1.606 4.63,-2.41 8.098,-2.41 3.494,0 6.088,0.713 7.779,2.136 1.692,1.422 2.538,3.093 2.538,5.009 0,1.72 -0.748,3.073 -2.242,4.059 -1.042,0.678 -3.636,1.538 -7.78,2.581 -5.581,1.408 -9.451,2.627 -11.606,3.656 -2.157,1.029 -3.792,2.453 -4.905,4.271 -1.114,1.818 -1.67,3.828 -1.67,6.025 0,2.003 0.458,3.854 1.373,5.561 0.916,1.704 2.164,3.121 3.743,4.249 1.184,0.873 2.797,1.613 4.841,2.219 2.043,0.606 4.236,0.911 6.575,0.911 3.524,0 6.617,-0.508 9.281,-1.524 2.664,-1.013 4.63,-2.388 5.899,-4.122 1.269,-1.733 2.142,-4.053 2.621,-6.956 L 28.16,18.901 c -0.338,2.31 -1.317,4.115 -2.938,5.412 -1.621,1.296 -3.912,1.945 -6.871,1.945 -3.495,0 -5.991,-0.58 -7.484,-1.734 -1.495,-1.156 -2.241,-2.509 -2.241,-4.059 0,-0.987 0.31,-1.876 0.93,-2.665 0.619,-0.818 1.592,-1.493 2.918,-2.03 0.761,-0.281 3.002,-0.929 6.723,-1.945 5.383,-1.437 9.139,-2.613 11.268,-3.529 2.128,-0.916 3.798,-2.248 5.01,-3.997 1.212,-1.747 1.818,-3.917 1.818,-6.511 0,-2.537 -0.739,-4.926 -2.219,-7.167 -1.48,-2.242 -3.615,-3.975 -6.406,-5.201 -2.79,-1.225 -5.949,-1.838 -9.471,-1.838 -5.835,0 -10.283,1.21 -13.34,3.636 C 2.797,-8.357 0.845,-4.764 0,0"/>
          </g>
          <g transform="translate(483.6152,310.3114)" id="g3430">
            <path id="path3432" style="fill:#2156a3;fill-opacity:1;fill-rule:nonzero;stroke:none" d="m 0,0 c 0,8.315 2.311,14.476 6.935,18.477 3.861,3.327 8.568,4.991 14.121,4.991 6.174,0 11.22,-2.023 15.138,-6.069 3.918,-4.044 5.877,-9.634 5.877,-16.764 0,-5.779 -0.866,-10.325 -2.6,-13.638 -1.733,-3.311 -4.256,-5.884 -7.568,-7.716 -3.314,-1.831 -6.929,-2.747 -10.847,-2.747 -6.285,0 -11.366,2.014 -15.242,6.045 C 1.937,-13.391 0,-7.582 0,0 m 7.823,0 c 0,-5.751 1.253,-10.057 3.763,-12.918 2.508,-2.861 5.666,-4.292 9.47,-4.292 3.778,0 6.921,1.438 9.429,4.314 2.509,2.874 3.764,7.257 3.764,13.15 0,5.552 -1.261,9.759 -3.785,12.622 -2.522,2.861 -5.659,4.291 -9.408,4.291 -3.804,0 -6.962,-1.423 -9.47,-4.271 C 9.076,10.049 7.823,5.751 7.823,0"/>
          </g>
          <g transform="translate(342.8122,269.5273)" id="g3434">
            <path id="path3436" style="fill:#2156a3;fill-opacity:1;fill-rule:nonzero;stroke:none" d="m 0,0 c 0,-1.759 0.121,-4.868 2.555,-4.868 2.072,0 2.265,1.783 2.362,3.422 l 1.807,0 C 6.652,-4.025 5.688,-6.483 2.699,-6.483 c -4.097,0 -4.675,3.422 -4.675,6.893 0,3.278 0.53,7.231 4.628,7.231 2.699,0 4,-2.097 3.976,-4.58 l -1.783,0 C 4.82,4.532 4.435,6.025 2.627,6.025 -0.144,6.025 0,1.904 0,0"/>
          </g>
          <g transform="translate(356.0685,274.613)" id="g3438">
            <path id="path3440" style="fill:#2156a3;fill-opacity:1;fill-rule:nonzero;stroke:none" d="m 0,0 0.048,0 c 0.796,1.759 1.929,2.507 3.929,2.338 l 0,-1.88 C 1.519,0.891 0.073,-0.651 0.073,-3.085 l 0,-8.122 -1.904,0 0,13.4 L 0,2.193 0,0 Z"/>
          </g>
          <g transform="translate(371.5435,267.8646)" id="g3442">
            <path id="path3444" style="fill:#2156a3;fill-opacity:1;fill-rule:nonzero;stroke:none" d="m 0,0 0,-0.314 c 0,-2.482 -1.35,-4.506 -4.049,-4.506 -2.531,0 -4.338,1.687 -4.338,7.085 0,2.82 0.747,7.038 4.29,7.038 4.338,0 4.097,-4.097 4.194,-7.231 l -6.508,0 c 0.048,-1.807 -0.265,-5.277 2.41,-5.277 1.663,0 2.241,1.397 2.241,2.795 0,0.12 -0.024,0.266 -0.024,0.41 L 0,0 Z m -1.88,3.639 c -0.072,1.567 0.024,4.049 -2.193,4.049 -2.217,0 -2.266,-2.458 -2.338,-4.049 l 4.531,0 z m -1.639,10.34 2.627,0 -3.157,-3.399 -1.615,0 2.145,3.399 z"/>
          </g>
          <g transform="translate(382.9443,281.4816)" id="g3446">
            <path id="path3448" style="fill:#2156a3;fill-opacity:1;fill-rule:nonzero;stroke:none" d="m 0,0 1.904,0 0,-18.076 -1.832,0 0,1.76 -0.048,0 c -0.819,-1.591 -1.639,-2.121 -3.253,-2.121 -4.218,0 -3.881,5.904 -3.929,7.085 -0.145,3.929 1.157,7.038 4.025,7.038 1.373,0 2.193,-0.578 3.085,-1.735 L 0,-6.049 0,0 Z m 0,-11.159 c 0,1.832 -0.048,5.23 -2.603,5.23 -1.59,0 -2.627,-1.253 -2.627,-5.374 0,-2.892 0.097,-5.519 2.699,-5.519 1.977,0 2.531,2.482 2.531,4 l 0,1.663 z"/>
          </g>
        </g>
      </g>
      <path id="path3450" style="fill:#2156a3;fill-opacity:1;fill-rule:nonzero;stroke:none" d="m 390.224,281.482 1.904,0 0,-2.41 -1.904,0 0,2.41 z m 0,-4.676 1.904,0 0,-13.4 -1.904,0 0,13.4 z"/>
      <g id="g3452">
        <g clip-path="url(#clipPath3456)" id="g3454">
          <g transform="translate(399.6011,276.8057)" id="g3460">
            <path id="path3462" style="fill:#2156a3;fill-opacity:1;fill-rule:nonzero;stroke:none" d="m 0,0 2.241,0 0,-1.614 -2.218,0 0,-9.135 c 0,-0.457 -0.168,-1.036 0.893,-1.036 l 1.277,0 0,-1.615 -2.097,0 c -1.133,-0.024 -1.977,0.169 -1.977,2.194 l 0,9.592 -1.855,0 0,1.614 1.855,0 0,3.64 L 0,3.64 0,0 Z"/>
          </g>
          <g transform="translate(410.1822,263.0444)" id="g3464">
            <path id="path3466" style="fill:#2156a3;fill-opacity:1;fill-rule:nonzero;stroke:none" d="m 0,0 c -2.892,0 -4.796,1.735 -4.796,7.52 0,4.049 1.494,6.604 4.796,6.604 3.302,0 4.796,-2.555 4.796,-6.604 C 4.796,1.711 2.94,0 0,0 m 0,12.508 c -1.952,0 -2.82,-1.542 -2.82,-5.591 0,-3.158 0.602,-5.302 2.82,-5.302 2.265,0 2.82,2.144 2.82,5.302 0,4.049 -0.82,5.591 -2.82,5.591"/>
          </g>
        </g>
      </g>
      <g transform="translate(426.163,276.8057)" id="g3468">
        <path id="path3470" style="fill:#2156a3;fill-opacity:1;fill-rule:nonzero;stroke:none" d="m 0,0 1.977,0 3.036,-11.785 0.049,0 L 8.098,0 10.075,0 6.05,-13.4 3.977,-13.4 0,0 Z"/>
      </g>
      <g id="g3472">
        <g clip-path="url(#clipPath3476)" id="g3474">
          <g transform="translate(447.7837,267.8646)" id="g3480">
            <path id="path3482" style="fill:#2156a3;fill-opacity:1;fill-rule:nonzero;stroke:none" d="m 0,0 c 0.12,-2.628 -1.229,-4.82 -4.049,-4.82 -2.531,0 -4.338,1.687 -4.338,7.085 0,2.82 0.747,7.038 4.29,7.038 4.338,0 4.097,-4.097 4.194,-7.231 l -6.508,0 c 0.048,-1.807 -0.265,-5.277 2.41,-5.277 1.832,0 2.338,1.687 2.217,3.205 L 0,0 Z m -1.88,3.639 c -0.072,1.567 0.024,4.049 -2.193,4.049 -2.217,0 -2.266,-2.458 -2.338,-4.049 l 4.531,0 z"/>
          </g>
          <g transform="translate(454.5329,263.4057)" id="g3484">
            <path id="path3486" style="fill:#2156a3;fill-opacity:1;fill-rule:nonzero;stroke:none" d="m 0,0 -1.904,0 0,18.076 1.904,0 0,-6.146 0.048,0 c 0.868,1.157 1.856,1.832 3.302,1.832 2,0 3.302,-1.061 3.302,-3.423 L 6.652,0 4.748,0 l 0,9.809 c 0,1.398 -0.458,2.338 -2,2.338 -0.7,0 -1.374,-0.265 -1.881,-0.747 C 0.096,10.701 0,9.929 0,8.966 L 0,0 Z"/>
          </g>
        </g>
      </g>
      <path id="path3488" style="fill:#2156a3;fill-opacity:1;fill-rule:nonzero;stroke:none" d="m 466.465,281.482 1.904,0 0,-2.41 -1.904,0 0,2.41 z m 0,-4.676 1.904,0 0,-13.4 -1.904,0 0,13.4 z"/>
      <g id="g3490">
        <g clip-path="url(#clipPath3494)" id="g3492">
          <g transform="translate(474.9249,269.5273)" id="g3498">
            <path id="path3500" style="fill:#2156a3;fill-opacity:1;fill-rule:nonzero;stroke:none" d="m 0,0 c 0,-1.759 0.121,-4.868 2.555,-4.868 2.072,0 2.265,1.783 2.362,3.422 l 1.807,0 C 6.652,-4.025 5.688,-6.483 2.699,-6.483 c -4.096,0 -4.676,3.422 -4.676,6.893 0,3.278 0.531,7.231 4.628,7.231 2.699,0 4.001,-2.097 3.977,-4.58 l -1.784,0 C 4.82,4.532 4.435,6.025 2.627,6.025 -0.145,6.025 0,1.904 0,0"/>
          </g>
          <g transform="translate(492.7128,265.1652)" id="g3502">
            <path id="path3504" style="fill:#2156a3;fill-opacity:1;fill-rule:nonzero;stroke:none" d="M 0,0 -0.049,0 C -0.7,-1.374 -1.928,-2.121 -3.23,-2.121 c -2,0 -3.23,1.06 -3.23,3.422 l 0,10.339 1.904,0 0,-10.411 c 0,-1.133 0.362,-1.735 1.712,-1.735 0.916,0 1.759,0.409 2.29,1.18 C -0.12,1.35 0,2.265 0,3.037 l 0,8.603 1.904,0 0,-13.4 L 0,-1.76 0,0 Z"/>
          </g>
        </g>
      </g>
      <path id="path3506" style="fill:#2156a3;fill-opacity:1;fill-rule:nonzero;stroke:none" d="m 499.993,281.482 1.904,0 0,-18.076 -1.904,0 0,18.076 z"/>
      <g id="g3508">
        <g clip-path="url(#clipPath3512)" id="g3510">
          <g transform="translate(515.466,263.4057)" id="g3516">
            <path id="path3518" style="fill:#2156a3;fill-opacity:1;fill-rule:nonzero;stroke:none" d="m 0,0 c -0.144,-0.024 -0.29,-0.048 -0.434,-0.097 -1.614,-0.072 -2.217,0.073 -2.41,1.905 l -0.048,0 c -0.458,-1.181 -1.687,-2.169 -2.965,-2.169 -2.675,0 -3.446,1.494 -3.446,3.928 0,0.506 0.072,2.434 1.928,3.254 1.085,0.482 3.784,1.494 4.025,1.687 0.409,0.313 0.361,0.844 0.361,1.543 0,1.518 -0.578,2.096 -2.121,2.096 -1.735,0 -1.976,-0.795 -1.951,-2.362 l -1.712,0 c -0.096,2.772 1.278,3.977 3.977,3.977 3.976,0 3.639,-3.326 3.639,-3.639 l 0,-7.689 C -1.157,2.097 -1.205,1.615 -0.82,1.422 -0.554,1.35 -0.266,1.374 0,1.398 L 0,0 Z m -3.133,7.23 c -0.94,-0.554 -2,-0.963 -3.013,-1.446 -0.892,-0.409 -1.181,-1.398 -1.181,-2.313 0,-1.35 0.337,-2.217 1.88,-2.217 0.723,0 2.314,0.554 2.314,2.723 l 0,3.253 z"/>
          </g>
          <g transform="translate(521.7095,274.613)" id="g3520">
            <path id="path3522" style="fill:#2156a3;fill-opacity:1;fill-rule:nonzero;stroke:none" d="m 0,0 0.048,0 c 0.796,1.759 1.928,2.507 3.929,2.338 l 0,-1.88 C 1.518,0.891 0.072,-0.651 0.072,-3.085 l 0,-8.122 -1.903,0 0,13.4 L 0,2.193 0,0 Z"/>
          </g>
        </g>
      </g>
    </g>
  </g>
</svg>
